<svg width="228" height="71" viewBox="0 0 228 71" fill="none" xmlns="http://www.w3.org/2000/svg">
<rect width="228" height="71" rx="10" fill="#0078D4"/>
<path d="M13.8672 25.9258C13.7891 26.707 13.3594 27.1302 12.5781 27.1953C12.2135 27.1953 11.8945 27.0781 11.6211 26.8438C11.3607 26.5964 11.2305 26.2904 11.2305 25.9258V16.707C11.2435 16.3424 11.3802 16.043 11.6406 15.8086C11.901 15.5612 12.2135 15.4375 12.5781 15.4375H20.7812C21.9271 15.4766 22.793 15.7305 23.3789 16.1992C23.9648 16.6549 24.388 17.1758 24.6484 17.7617C24.9089 18.3477 25.0391 18.9401 25.0391 19.5391C25.0391 20.1641 24.9089 20.7695 24.6484 21.3555C24.401 21.9414 23.9779 22.4688 23.3789 22.9375C22.793 23.3932 22.0443 23.6146 21.1328 23.6016H16.2109C15.8464 23.6016 15.5404 23.4714 15.293 23.2109C15.0326 22.9635 14.9023 22.6576 14.9023 22.293C14.9023 21.9284 15.026 21.6224 15.2734 21.375C15.5339 21.1146 15.8464 20.9844 16.2109 20.9844H21.25C21.4974 20.9844 21.6992 20.9062 21.8555 20.75C22.0247 20.5807 22.1484 20.3919 22.2266 20.1836C22.3047 19.9622 22.3438 19.7409 22.3438 19.5195C22.3438 19.3112 22.3047 19.1029 22.2266 18.8945C22.1484 18.6732 22.0247 18.4844 21.8555 18.3281C21.6992 18.1589 21.4974 18.0677 21.25 18.0547H14.375C14.0365 18.0677 13.8672 18.237 13.8672 18.5625V25.9258ZM27.5195 20.5547C27.7669 19.9297 28.1836 19.3698 28.7695 18.875C29.3685 18.3672 30.1237 18.1068 31.0352 18.0938H38.3789C38.7435 18.0938 39.0495 18.224 39.2969 18.4844C39.5573 18.7318 39.6875 19.0378 39.6875 19.4023C39.6875 19.7669 39.5573 20.0794 39.2969 20.3398C39.0495 20.5872 38.7435 20.7109 38.3789 20.7109H30.957C30.7096 20.7109 30.4948 20.8151 30.3125 21.0234C30.1302 21.2188 29.987 21.4531 29.8828 21.7266C29.7917 22 29.7461 22.2604 29.7461 22.5078V25.9258C29.668 26.707 29.2383 27.1302 28.457 27.1953C28.0924 27.1953 27.7734 27.0781 27.5 26.8438C27.2396 26.5964 27.1094 26.2904 27.1094 25.9258V22.5273H27.1289C27.1289 21.8503 27.2591 21.1927 27.5195 20.5547ZM45.6641 26.9609C44.5182 26.9219 43.6523 26.6549 43.0664 26.1602C42.4805 25.6523 42.0573 25.0859 41.7969 24.4609C41.5365 23.8229 41.4062 23.1784 41.4062 22.5273C41.4062 21.8503 41.5299 21.1992 41.7773 20.5742C42.0378 19.9362 42.4609 19.3698 43.0469 18.875C43.6458 18.3672 44.401 18.1068 45.3125 18.0938H51.6406C52.5521 18.1068 53.3008 18.3672 53.8867 18.875C54.4857 19.3698 54.9089 19.9362 55.1562 20.5742C55.4167 21.1992 55.5469 21.8503 55.5469 22.5273C55.5469 23.1784 55.4167 23.8229 55.1562 24.4609C54.8958 25.0859 54.4727 25.6523 53.8867 26.1602C53.3008 26.6549 52.4349 26.9219 51.2891 26.9609H45.6641ZM45.2344 20.7109C44.987 20.7109 44.7721 20.8151 44.5898 21.0234C44.4076 21.2188 44.2708 21.4531 44.1797 21.7266C44.1016 21.987 44.0625 22.2474 44.0625 22.5078C44.0625 22.7812 44.1016 23.0547 44.1797 23.3281C44.2708 23.5885 44.4076 23.8229 44.5898 24.0312C44.7721 24.2266 44.987 24.3307 45.2344 24.3438H51.7188C51.9661 24.3307 52.181 24.2266 52.3633 24.0312C52.5456 23.8229 52.6758 23.5885 52.7539 23.3281C52.8451 23.0547 52.8906 22.7812 52.8906 22.5078C52.8906 22.2474 52.8451 21.987 52.7539 21.7266C52.6758 21.4531 52.5456 21.2188 52.3633 21.0234C52.181 20.8151 51.9661 20.7109 51.7188 20.7109H45.2344ZM60.4297 28.6602C60.3516 29.4414 59.9219 29.8646 59.1406 29.9297C58.776 29.9297 58.457 29.806 58.1836 29.5586C57.9232 29.3242 57.793 29.0247 57.793 28.6602V19.3633C57.806 18.9987 57.9427 18.6992 58.2031 18.4648C58.4635 18.2174 58.776 18.0938 59.1406 18.0938H67.3438C68.4896 18.1328 69.3555 18.4062 69.9414 18.9141C70.5273 19.4089 70.9505 19.9753 71.2109 20.6133C71.4714 21.2383 71.6016 21.8763 71.6016 22.5273C71.6016 23.2044 71.4714 23.862 71.2109 24.5C70.9635 25.125 70.5404 25.6914 69.9414 26.1992C69.3555 26.694 68.6068 26.9479 67.6953 26.9609H62.7734C62.4089 26.9609 62.1029 26.8307 61.8555 26.5703C61.5951 26.3229 61.4648 26.0169 61.4648 25.6523C61.4648 25.2878 61.5885 24.9818 61.8359 24.7344C62.0964 24.474 62.4089 24.3438 62.7734 24.3438H67.7734C68.0208 24.3438 68.2357 24.2461 68.418 24.0508C68.6003 23.8424 68.7305 23.6081 68.8086 23.3477C68.8997 23.0742 68.9453 22.8073 68.9453 22.5469C68.9453 22.2734 68.8997 22.0065 68.8086 21.7461C68.7305 21.4727 68.6003 21.2383 68.418 21.043C68.2357 20.8346 68.0208 20.724 67.7734 20.7109H60.9375C60.599 20.724 60.4297 20.8932 60.4297 21.2188V28.6602ZM77.9883 26.9609C76.8424 26.9219 75.9766 26.6549 75.3906 26.1602C74.8047 25.6523 74.3815 25.0859 74.1211 24.4609C73.8607 23.8229 73.7305 23.1784 73.7305 22.5273C73.7305 21.8503 73.8542 21.1992 74.1016 20.5742C74.362 19.9362 74.7852 19.3698 75.3711 18.875C75.9701 18.3672 76.7253 18.1068 77.6367 18.0938H85.0586C85.4232 18.0938 85.7292 18.2174 85.9766 18.4648C86.237 18.6992 86.3672 18.9857 86.3672 19.3242C86.3672 19.6758 86.237 19.9753 85.9766 20.2227C85.7292 20.457 85.4232 20.5742 85.0586 20.5742H77.7539C77.4674 20.5742 77.2135 20.6719 76.9922 20.8672C76.7839 21.0625 76.6276 21.3164 76.5234 21.6289C76.4323 21.9414 76.3867 22.2474 76.3867 22.5469C76.3867 22.8724 76.4323 23.1914 76.5234 23.5039C76.6276 23.8164 76.7839 24.0703 76.9922 24.2656C77.2135 24.4479 77.4674 24.5456 77.7539 24.5586H85.0586C85.4232 24.5586 85.7292 24.6758 85.9766 24.9102C86.237 25.1445 86.3672 25.4245 86.3672 25.75C86.3672 26.0885 86.237 26.375 85.9766 26.6094C85.7292 26.8438 85.4232 26.9609 85.0586 26.9609H77.9883ZM86.1328 22.4883C86.1328 22.7357 86.0221 22.9505 85.8008 23.1328C85.6055 23.3021 85.3581 23.3867 85.0586 23.3867H78.6719C78.3724 23.3867 78.1185 23.3021 77.9102 23.1328C77.7018 22.9505 77.5977 22.7357 77.5977 22.4883C77.5977 22.2539 77.7018 22.0456 77.9102 21.8633C78.1185 21.694 78.3724 21.6094 78.6719 21.6094H85.0586C85.3581 21.6094 85.612 21.7005 85.8203 21.8828C86.0286 22.0521 86.1328 22.2539 86.1328 22.4883ZM89.0234 20.5547C89.2708 19.9297 89.6875 19.3698 90.2734 18.875C90.8724 18.3672 91.6276 18.1068 92.5391 18.0938H99.8828C100.247 18.0938 100.553 18.224 100.801 18.4844C101.061 18.7318 101.191 19.0378 101.191 19.4023C101.191 19.7669 101.061 20.0794 100.801 20.3398C100.553 20.5872 100.247 20.7109 99.8828 20.7109H92.4609C92.2135 20.7109 91.9987 20.8151 91.8164 21.0234C91.6341 21.2188 91.4909 21.4531 91.3867 21.7266C91.2956 22 91.25 22.2604 91.25 22.5078V25.9258C91.1719 26.707 90.7422 27.1302 89.9609 27.1953C89.5964 27.1953 89.2773 27.0781 89.0039 26.8438C88.7435 26.5964 88.6133 26.2904 88.6133 25.9258V22.5273H88.6328C88.6328 21.8503 88.763 21.1927 89.0234 20.5547ZM107.363 15.125C107.728 15.125 108.04 15.2487 108.301 15.4961C108.561 15.7305 108.698 16.0299 108.711 16.3945V18.0938H115.352C115.716 18.0938 116.029 18.2174 116.289 18.4648C116.536 18.7253 116.66 19.0378 116.66 19.4023C116.66 19.7669 116.53 20.0794 116.27 20.3398C116.022 20.5872 115.716 20.7109 115.352 20.7109H108.711V21.1016C108.698 21.6354 108.73 22.1302 108.809 22.5859C108.9 23.0286 109.108 23.4258 109.434 23.7773C109.759 24.1289 110.169 24.3177 110.664 24.3438H115.43C115.794 24.3568 116.094 24.4935 116.328 24.7539C116.576 25.0143 116.699 25.3268 116.699 25.6914C116.686 26.043 116.556 26.3424 116.309 26.5898C116.074 26.8242 115.781 26.9479 115.43 26.9609H110C109.089 26.9089 108.333 26.6029 107.734 26.043C107.148 25.4701 106.725 24.7734 106.465 23.9531C106.217 23.1328 106.087 22.2604 106.074 21.3359V20.7109H103.828C103.464 20.7109 103.158 20.5807 102.91 20.3203C102.65 20.0729 102.52 19.7669 102.52 19.4023C102.52 19.0378 102.643 18.7318 102.891 18.4844C103.151 18.224 103.464 18.0938 103.828 18.0938H106.074V16.3945C106.087 16.043 106.217 15.75 106.465 15.5156C106.712 15.2682 107.012 15.138 107.363 15.125ZM119.883 17.8594C120.247 17.8594 120.56 17.9831 120.82 18.2305C121.081 18.4648 121.217 18.7643 121.23 19.1289V21.1016C121.217 21.6354 121.25 22.1302 121.328 22.5859C121.419 23.0286 121.628 23.4258 121.953 23.7773C122.279 24.1289 122.689 24.3177 123.184 24.3438H128.398V19.168C128.398 18.8034 128.529 18.5039 128.789 18.2695C129.062 18.0221 129.382 17.8984 129.746 17.8984C130.527 17.9635 130.957 18.3867 131.035 19.168V25.5352C131.035 26.5768 130.892 27.5599 130.605 28.4844C130.345 29.3047 129.915 29.9948 129.316 30.5547C128.73 31.1276 127.982 31.4401 127.07 31.4922H120.312C119.961 31.4792 119.661 31.349 119.414 31.1016C119.18 30.8672 119.056 30.5742 119.043 30.2227C119.043 29.8581 119.16 29.5456 119.395 29.2852C119.642 29.0247 119.948 28.888 120.312 28.875H126.406C126.901 28.849 127.311 28.6602 127.637 28.3086C127.962 27.957 128.171 27.5469 128.262 27.0781C128.275 27.0391 128.281 27 128.281 26.9609H122.52C121.608 26.9089 120.853 26.6029 120.254 26.043C119.668 25.4701 119.245 24.7734 118.984 23.9531C118.737 23.1328 118.607 22.2604 118.594 21.3359V19.1289C118.607 18.7773 118.737 18.4844 118.984 18.25C119.232 18.0026 119.531 17.8724 119.883 17.8594ZM152.07 15.4375C152.982 15.4896 153.73 15.8411 154.316 16.4922C154.902 17.1302 155.326 17.8594 155.586 18.6797C155.846 19.5 155.977 20.3398 155.977 21.1992C155.977 22.0586 155.846 22.8984 155.586 23.7188C155.339 24.5391 154.915 25.2747 154.316 25.9258C153.73 26.5638 152.982 26.9089 152.07 26.9609H144.883C144.531 26.9479 144.232 26.8242 143.984 26.5898C143.75 26.3424 143.626 26.043 143.613 25.6914V20.8477C143.626 20.4831 143.763 20.1836 144.023 19.9492C144.284 19.7018 144.596 19.5781 144.961 19.5781C145.312 19.5911 145.612 19.7214 145.859 19.9688C146.107 20.2031 146.237 20.4961 146.25 20.8477V23.8164C146.25 24.168 146.432 24.3438 146.797 24.3438H151.406C151.901 24.3177 152.311 24.1289 152.637 23.7773C152.962 23.4258 153.197 23.0286 153.34 22.5859C153.496 22.1302 153.574 21.668 153.574 21.1992C153.574 20.7305 153.496 20.2747 153.34 19.832C153.197 19.3763 152.962 18.9727 152.637 18.6211C152.311 18.2695 151.901 18.0807 151.406 18.0547H144.883C144.102 17.9896 143.678 17.5664 143.613 16.7852C143.613 16.4206 143.73 16.1081 143.965 15.8477C144.212 15.5872 144.518 15.4505 144.883 15.4375H152.07ZM162.109 26.9609C160.964 26.9219 160.098 26.6549 159.512 26.1602C158.926 25.6523 158.503 25.0859 158.242 24.4609C157.982 23.8229 157.852 23.1784 157.852 22.5273C157.852 21.8503 157.975 21.1992 158.223 20.5742C158.483 19.9362 158.906 19.3698 159.492 18.875C160.091 18.3672 160.846 18.1068 161.758 18.0938H169.18C169.544 18.0938 169.85 18.2174 170.098 18.4648C170.358 18.6992 170.488 18.9857 170.488 19.3242C170.488 19.6758 170.358 19.9753 170.098 20.2227C169.85 20.457 169.544 20.5742 169.18 20.5742H161.875C161.589 20.5742 161.335 20.6719 161.113 20.8672C160.905 21.0625 160.749 21.3164 160.645 21.6289C160.553 21.9414 160.508 22.2474 160.508 22.5469C160.508 22.8724 160.553 23.1914 160.645 23.5039C160.749 23.8164 160.905 24.0703 161.113 24.2656C161.335 24.4479 161.589 24.5456 161.875 24.5586H169.18C169.544 24.5586 169.85 24.6758 170.098 24.9102C170.358 25.1445 170.488 25.4245 170.488 25.75C170.488 26.0885 170.358 26.375 170.098 26.6094C169.85 26.8438 169.544 26.9609 169.18 26.9609H162.109ZM170.254 22.4883C170.254 22.7357 170.143 22.9505 169.922 23.1328C169.727 23.3021 169.479 23.3867 169.18 23.3867H162.793C162.493 23.3867 162.24 23.3021 162.031 23.1328C161.823 22.9505 161.719 22.7357 161.719 22.4883C161.719 22.2539 161.823 22.0456 162.031 21.8633C162.24 21.694 162.493 21.6094 162.793 21.6094H169.18C169.479 21.6094 169.733 21.7005 169.941 21.8828C170.15 22.0521 170.254 22.2539 170.254 22.4883ZM174.082 15.125C174.434 15.138 174.733 15.2682 174.98 15.5156C175.228 15.75 175.358 16.043 175.371 16.3945V25.9648C175.293 26.7461 174.863 27.1693 174.082 27.2344C173.717 27.2344 173.398 27.1172 173.125 26.8828C172.865 26.6354 172.734 26.3294 172.734 25.9648V16.3945C172.747 16.0299 172.884 15.7305 173.145 15.4961C173.405 15.2487 173.717 15.125 174.082 15.125ZM176.562 20.5742C176.94 19.9622 177.663 19.513 178.73 19.2266L183.75 17.8789C184.102 17.7747 184.434 17.8073 184.746 17.9766C185.072 18.1328 185.286 18.3867 185.391 18.7383C185.508 19.0768 185.482 19.4089 185.312 19.7344C185.156 20.0469 184.902 20.2617 184.551 20.3789L179.199 21.7656C178.822 21.9089 178.639 22.1562 178.652 22.5078C178.639 22.8594 178.822 23.1068 179.199 23.25L184.551 24.6367C184.902 24.7539 185.156 24.9753 185.312 25.3008C185.482 25.6133 185.508 25.9388 185.391 26.2773C185.286 26.6289 185.072 26.8828 184.746 27.0391C184.434 27.2083 184.102 27.2409 183.75 27.1367L178.73 25.7891C177.65 25.4896 176.921 25.0339 176.543 24.4219C176.178 23.8099 175.996 23.1719 175.996 22.5078C175.996 21.8438 176.185 21.1992 176.562 20.5742ZM188.848 15.125C189.199 15.138 189.499 15.2682 189.746 15.5156C189.993 15.75 190.124 16.043 190.137 16.3945V18.0938H196.191C197.103 18.1068 197.852 18.3672 198.438 18.875C199.036 19.3698 199.46 19.9297 199.707 20.5547C199.967 21.1927 200.098 21.8503 200.098 22.5273H200.117V25.9258C200.117 26.2904 199.98 26.5964 199.707 26.8438C199.447 27.0781 199.134 27.1953 198.77 27.1953C197.988 27.1302 197.559 26.707 197.48 25.9258V22.5078C197.48 22.2604 197.428 22 197.324 21.7266C197.233 21.4531 197.096 21.2188 196.914 21.0234C196.732 20.8151 196.517 20.7109 196.27 20.7109H190.137V25.9648C190.059 26.7461 189.629 27.1693 188.848 27.2344C188.483 27.2344 188.164 27.1172 187.891 26.8828C187.63 26.6354 187.5 26.3294 187.5 25.9648V16.3945C187.513 16.0299 187.65 15.7305 187.91 15.4961C188.171 15.2487 188.483 15.125 188.848 15.125ZM206.621 26.9609C205.475 26.9219 204.609 26.6549 204.023 26.1602C203.438 25.6523 203.014 25.0859 202.754 24.4609C202.493 23.8229 202.363 23.1784 202.363 22.5273C202.363 21.8503 202.487 21.1992 202.734 20.5742C202.995 19.9362 203.418 19.3698 204.004 18.875C204.603 18.3672 205.358 18.1068 206.27 18.0938H212.598C213.509 18.1068 214.258 18.3672 214.844 18.875C215.443 19.3698 215.866 19.9362 216.113 20.5742C216.374 21.1992 216.504 21.8503 216.504 22.5273C216.504 23.1784 216.374 23.8229 216.113 24.4609C215.853 25.0859 215.43 25.6523 214.844 26.1602C214.258 26.6549 213.392 26.9219 212.246 26.9609H206.621ZM206.191 20.7109C205.944 20.7109 205.729 20.8151 205.547 21.0234C205.365 21.2188 205.228 21.4531 205.137 21.7266C205.059 21.987 205.02 22.2474 205.02 22.5078C205.02 22.7812 205.059 23.0547 205.137 23.3281C205.228 23.5885 205.365 23.8229 205.547 24.0312C205.729 24.2266 205.944 24.3307 206.191 24.3438H212.676C212.923 24.3307 213.138 24.2266 213.32 24.0312C213.503 23.8229 213.633 23.5885 213.711 23.3281C213.802 23.0547 213.848 22.7812 213.848 22.5078C213.848 22.2474 213.802 21.987 213.711 21.7266C213.633 21.4531 213.503 21.2188 213.32 21.0234C213.138 20.8151 212.923 20.7109 212.676 20.7109H206.191Z" fill="white"/>
<rect x="172" y="38" width="46" height="23" rx="7" fill="white"/>
<mask id="path-4-outside-1_1493_7842" maskUnits="userSpaceOnUse" x="178" y="42" width="38" height="14" fill="black">
<rect fill="white" x="178" y="42" width="38" height="14"/>
<path d="M180.633 55C179.57 55 179.039 54.6354 179.039 53.9062C179.039 53.7708 179.057 53.6198 179.094 53.4531C179.458 51.7917 181.016 50.401 183.766 49.2812C185.417 48.6094 186.367 47.7578 186.617 46.7266C186.685 46.4453 186.719 46.1901 186.719 45.9609C186.719 45.6224 186.648 45.3438 186.508 45.125C186.201 44.625 185.667 44.375 184.906 44.375C183.953 44.375 183.057 44.9375 182.219 46.0625H182.141L181.016 45.4531C182.26 43.849 183.659 43.0469 185.211 43.0469C186.466 43.0469 187.344 43.4245 187.844 44.1797C188.156 44.6536 188.312 45.1979 188.312 45.8125C188.312 46.1302 188.271 46.4635 188.188 46.8125C187.859 48.2656 186.583 49.4688 184.359 50.4219C182.031 51.4219 180.763 52.3385 180.555 53.1719C180.539 53.2344 180.531 53.2917 180.531 53.3438C180.531 53.5625 180.667 53.6719 180.938 53.6719H184.531C185.146 53.6719 185.602 53.3672 185.898 52.7578H185.977L187.023 53.3125C186.451 54.4375 185.518 55 184.227 55H180.633ZM193.484 55.3125L194.203 52.2031H190.359C189.49 52.2031 189.055 51.9427 189.055 51.4219C189.055 51.3438 189.068 51.25 189.094 51.1406C189.172 50.7708 189.393 50.3854 189.758 49.9844L196.352 42.8906C197.201 42.8906 197.625 43.2318 197.625 43.9141C197.625 44.0651 197.604 44.2344 197.562 44.4219L196.07 50.875H197.414L197.398 50.9531L196.523 52.2031H195.766L195.211 54.6094L193.562 55.3125H193.484ZM194.508 50.875L195.828 45.1406L190.555 50.875H194.508ZM199.242 55.3125H199.164L197.953 54.6719L201.094 50.9297C200.469 50.5286 200.031 50.013 199.781 49.3828C199.667 49.0911 199.609 48.7396 199.609 48.3281C199.609 47.8958 199.674 47.3854 199.805 46.7969L201.453 46.0938H201.531C201.286 47.151 201.164 47.9167 201.164 48.3906C201.164 48.5573 201.185 48.7031 201.227 48.8281C201.398 49.2865 201.654 49.6328 201.992 49.8672L205.164 46.0938H205.242L206.461 46.7422L203.289 50.5078C203.977 50.9245 204.44 51.4297 204.68 52.0234C204.794 52.3099 204.852 52.6562 204.852 53.0625C204.852 53.5208 204.784 54.0365 204.648 54.6094L203 55.3125H202.922C203.151 54.3125 203.266 53.5495 203.266 53.0234C203.266 52.8464 203.253 52.6979 203.227 52.5781C203.133 52.1406 202.859 51.7995 202.406 51.5547L199.242 55.3125ZM207.156 54.6484L213.109 44.5312H207.836L207.859 44.4531L208.734 43.2031H213.422C214.25 43.2031 214.664 43.5208 214.664 44.1562C214.669 44.2917 214.651 44.4427 214.609 44.6094C214.552 44.8438 214.242 45.4271 213.68 46.3594L208.492 55.3125H208.414L207.156 54.6484Z"/>
</mask>
<path d="M180.633 55C179.57 55 179.039 54.6354 179.039 53.9062C179.039 53.7708 179.057 53.6198 179.094 53.4531C179.458 51.7917 181.016 50.401 183.766 49.2812C185.417 48.6094 186.367 47.7578 186.617 46.7266C186.685 46.4453 186.719 46.1901 186.719 45.9609C186.719 45.6224 186.648 45.3438 186.508 45.125C186.201 44.625 185.667 44.375 184.906 44.375C183.953 44.375 183.057 44.9375 182.219 46.0625H182.141L181.016 45.4531C182.26 43.849 183.659 43.0469 185.211 43.0469C186.466 43.0469 187.344 43.4245 187.844 44.1797C188.156 44.6536 188.312 45.1979 188.312 45.8125C188.312 46.1302 188.271 46.4635 188.188 46.8125C187.859 48.2656 186.583 49.4688 184.359 50.4219C182.031 51.4219 180.763 52.3385 180.555 53.1719C180.539 53.2344 180.531 53.2917 180.531 53.3438C180.531 53.5625 180.667 53.6719 180.938 53.6719H184.531C185.146 53.6719 185.602 53.3672 185.898 52.7578H185.977L187.023 53.3125C186.451 54.4375 185.518 55 184.227 55H180.633ZM193.484 55.3125L194.203 52.2031H190.359C189.49 52.2031 189.055 51.9427 189.055 51.4219C189.055 51.3438 189.068 51.25 189.094 51.1406C189.172 50.7708 189.393 50.3854 189.758 49.9844L196.352 42.8906C197.201 42.8906 197.625 43.2318 197.625 43.9141C197.625 44.0651 197.604 44.2344 197.562 44.4219L196.07 50.875H197.414L197.398 50.9531L196.523 52.2031H195.766L195.211 54.6094L193.562 55.3125H193.484ZM194.508 50.875L195.828 45.1406L190.555 50.875H194.508ZM199.242 55.3125H199.164L197.953 54.6719L201.094 50.9297C200.469 50.5286 200.031 50.013 199.781 49.3828C199.667 49.0911 199.609 48.7396 199.609 48.3281C199.609 47.8958 199.674 47.3854 199.805 46.7969L201.453 46.0938H201.531C201.286 47.151 201.164 47.9167 201.164 48.3906C201.164 48.5573 201.185 48.7031 201.227 48.8281C201.398 49.2865 201.654 49.6328 201.992 49.8672L205.164 46.0938H205.242L206.461 46.7422L203.289 50.5078C203.977 50.9245 204.44 51.4297 204.68 52.0234C204.794 52.3099 204.852 52.6562 204.852 53.0625C204.852 53.5208 204.784 54.0365 204.648 54.6094L203 55.3125H202.922C203.151 54.3125 203.266 53.5495 203.266 53.0234C203.266 52.8464 203.253 52.6979 203.227 52.5781C203.133 52.1406 202.859 51.7995 202.406 51.5547L199.242 55.3125ZM207.156 54.6484L213.109 44.5312H207.836L207.859 44.4531L208.734 43.2031H213.422C214.25 43.2031 214.664 43.5208 214.664 44.1562C214.669 44.2917 214.651 44.4427 214.609 44.6094C214.552 44.8438 214.242 45.4271 213.68 46.3594L208.492 55.3125H208.414L207.156 54.6484Z" fill="#0078D4"/>
<path d="M179.094 53.4531L178.605 53.346L178.605 53.3463L179.094 53.4531ZM183.766 49.2812L183.577 48.8181L183.577 48.8182L183.766 49.2812ZM186.617 46.7266L187.103 46.8444L187.103 46.8436L186.617 46.7266ZM186.508 45.125L186.082 45.3869L186.087 45.3954L186.508 45.125ZM182.219 46.0625V46.5625H182.47L182.62 46.3613L182.219 46.0625ZM182.141 46.0625L181.902 46.5021L182.014 46.5625H182.141V46.0625ZM181.016 45.4531L180.621 45.1466L180.259 45.6121L180.777 45.8928L181.016 45.4531ZM187.844 44.1797L188.261 43.9045L188.261 43.9037L187.844 44.1797ZM188.188 46.8125L187.701 46.6964L187.7 46.7024L188.188 46.8125ZM184.359 50.4219L184.162 49.9623L184.162 49.9625L184.359 50.4219ZM180.555 53.1719L180.07 53.0506L180.555 53.1719ZM185.898 52.7578V52.2578H185.586L185.449 52.5388L185.898 52.7578ZM185.977 52.7578L186.211 52.316L186.101 52.2578H185.977V52.7578ZM187.023 53.3125L187.469 53.5394L187.692 53.101L187.258 52.8707L187.023 53.3125ZM180.633 54.5C180.143 54.5 179.864 54.4132 179.72 54.3143C179.61 54.2387 179.539 54.1313 179.539 53.9062H178.539C178.539 54.4104 178.734 54.8498 179.155 55.1388C179.542 55.4045 180.06 55.5 180.633 55.5V54.5ZM179.539 53.9062C179.539 53.8146 179.552 53.7002 179.582 53.56L178.605 53.3463C178.563 53.5394 178.539 53.7271 178.539 53.9062H179.539ZM179.582 53.5603C179.892 52.1495 181.245 50.8476 183.954 49.7443L183.577 48.8182C180.787 49.9545 179.025 51.4338 178.605 53.346L179.582 53.5603ZM183.954 49.7444C185.653 49.0529 186.795 48.1138 187.103 46.8444L186.131 46.6088C185.939 47.4019 185.18 48.1659 183.577 48.8181L183.954 49.7444ZM187.103 46.8436C187.178 46.5335 187.219 46.2382 187.219 45.9609H186.219C186.219 46.142 186.192 46.3571 186.131 46.6095L187.103 46.8436ZM187.219 45.9609C187.219 45.555 187.134 45.175 186.928 44.8546L186.087 45.3954C186.162 45.5125 186.219 45.6898 186.219 45.9609H187.219ZM186.934 44.8632C186.509 44.1714 185.782 43.875 184.906 43.875V44.875C185.551 44.875 185.892 45.0786 186.082 45.3868L186.934 44.8632ZM184.906 43.875C183.731 43.875 182.704 44.5746 181.818 45.7637L182.62 46.3613C183.41 45.3004 184.175 44.875 184.906 44.875V43.875ZM182.219 45.5625H182.141V46.5625H182.219V45.5625ZM182.379 45.6229L181.254 45.0135L180.777 45.8928L181.902 46.5021L182.379 45.6229ZM181.411 45.7597C182.592 44.2367 183.859 43.5469 185.211 43.5469V42.5469C183.459 42.5469 181.928 43.4612 180.621 45.1466L181.411 45.7597ZM185.211 43.5469C186.369 43.5469 187.053 43.8906 187.427 44.4557L188.261 43.9037C187.635 42.9584 186.563 42.5469 185.211 42.5469V43.5469ZM187.426 44.4549C187.68 44.8404 187.812 45.2873 187.812 45.8125H188.812C188.812 45.1085 188.632 44.4669 188.261 43.9045L187.426 44.4549ZM187.812 45.8125C187.812 46.0864 187.777 46.3806 187.701 46.6964L188.674 46.9286C188.765 46.5464 188.812 46.174 188.812 45.8125H187.812ZM187.7 46.7024C187.424 47.9216 186.332 49.0326 184.162 49.9623L184.556 50.8814C186.835 49.9049 188.294 48.6097 188.675 46.9226L187.7 46.7024ZM184.162 49.9625C182.982 50.4692 182.046 50.9652 181.369 51.4541C180.709 51.9312 180.218 52.4574 180.07 53.0506L181.04 53.2931C181.1 53.053 181.347 52.7042 181.955 52.2646C182.547 51.8368 183.408 51.3745 184.557 50.8813L184.162 49.9625ZM180.07 53.0506C180.046 53.1438 180.031 53.2425 180.031 53.3438H181.031C181.031 53.3408 181.032 53.3249 181.04 53.2931L180.07 53.0506ZM180.031 53.3438C180.031 53.5618 180.104 53.8054 180.319 53.9788C180.513 54.1357 180.748 54.1719 180.938 54.1719V53.1719C180.902 53.1719 180.888 53.1681 180.89 53.1686C180.892 53.1693 180.917 53.1763 180.947 53.2009C180.98 53.2272 181.004 53.2617 181.019 53.2966C181.032 53.3283 181.031 53.3478 181.031 53.3438H180.031ZM180.938 54.1719H184.531V53.1719H180.938V54.1719ZM184.531 54.1719C184.925 54.1719 185.292 54.0729 185.612 53.859C185.929 53.6471 186.17 53.3424 186.348 52.9768L185.449 52.5388C185.33 52.7826 185.195 52.935 185.056 53.0277C184.92 53.1185 184.752 53.1719 184.531 53.1719V54.1719ZM185.898 53.2578H185.977V52.2578H185.898V53.2578ZM185.742 53.1996L186.789 53.7543L187.258 52.8707L186.211 52.316L185.742 53.1996ZM186.578 53.0856C186.327 53.5784 186.01 53.9243 185.636 54.15C185.261 54.3761 184.798 54.5 184.227 54.5V55.5C184.946 55.5 185.595 55.3426 186.153 55.0062C186.711 54.6694 187.147 54.1716 187.469 53.5394L186.578 53.0856ZM184.227 54.5H180.633V55.5H184.227V54.5ZM193.484 55.3125L192.997 55.1999L192.856 55.8125H193.484V55.3125ZM194.203 52.2031L194.69 52.3157L194.832 51.7031H194.203V52.2031ZM189.094 51.1406L189.58 51.2565L189.583 51.244L189.094 51.1406ZM189.758 49.9844L189.392 49.6439L189.388 49.648L189.758 49.9844ZM196.352 42.8906V42.3906H196.134L195.985 42.5502L196.352 42.8906ZM197.562 44.4219L198.05 44.5345L198.051 44.5303L197.562 44.4219ZM196.07 50.875L195.583 50.7624L195.442 51.375H196.07V50.875ZM197.414 50.875L197.904 50.9731L198.024 50.375H197.414V50.875ZM197.398 50.9531L197.808 51.2399L197.868 51.154L197.889 51.0512L197.398 50.9531ZM196.523 52.2031V52.7031H196.784L196.933 52.4899L196.523 52.2031ZM195.766 52.2031V51.7031H195.368L195.278 52.0908L195.766 52.2031ZM195.211 54.6094L195.407 55.0693L195.641 54.9695L195.698 54.7217L195.211 54.6094ZM193.562 55.3125V55.8125H193.665L193.759 55.7724L193.562 55.3125ZM194.508 50.875V51.375H194.906L194.995 50.9872L194.508 50.875ZM195.828 45.1406L196.315 45.2528L196.739 43.411L195.46 44.8022L195.828 45.1406ZM190.555 50.875L190.187 50.5365L189.416 51.375H190.555V50.875ZM193.972 55.4251L194.69 52.3157L193.716 52.0905L192.997 55.1999L193.972 55.4251ZM194.203 51.7031H190.359V52.7031H194.203V51.7031ZM190.359 51.7031C189.958 51.7031 189.74 51.6401 189.638 51.5788C189.594 51.5527 189.579 51.5317 189.573 51.5205C189.567 51.5086 189.555 51.4811 189.555 51.4219H188.555C188.555 51.8522 188.751 52.2133 189.124 52.4368C189.457 52.6359 189.891 52.7031 190.359 52.7031V51.7031ZM189.555 51.4219C189.555 51.3957 189.56 51.3429 189.58 51.2564L188.607 51.0248C188.576 51.1571 188.555 51.2918 188.555 51.4219H189.555ZM189.583 51.244C189.636 50.9908 189.798 50.6829 190.128 50.3207L189.388 49.648C188.988 50.0879 188.707 50.5509 188.605 51.0373L189.583 51.244ZM190.124 50.3248L196.718 43.231L195.985 42.5502L189.392 49.644L190.124 50.3248ZM196.352 43.3906C196.722 43.3906 196.908 43.4673 196.993 43.5362C197.058 43.5884 197.125 43.6825 197.125 43.9141H198.125C198.125 43.4634 197.979 43.0457 197.62 42.7568C197.281 42.4846 196.83 42.3906 196.352 42.3906V43.3906ZM197.125 43.9141C197.125 44.0203 197.11 44.1524 197.074 44.3134L198.051 44.5303C198.098 44.3163 198.125 44.1099 198.125 43.9141H197.125ZM197.075 44.3092L195.583 50.7624L196.557 50.9876L198.05 44.5345L197.075 44.3092ZM196.07 51.375H197.414V50.375H196.07V51.375ZM196.924 50.7769L196.908 50.8551L197.889 51.0512L197.904 50.9731L196.924 50.7769ZM196.989 50.6664L196.114 51.9164L196.933 52.4899L197.808 51.2399L196.989 50.6664ZM196.523 51.7031H195.766V52.7031H196.523V51.7031ZM195.278 52.0908L194.724 54.4971L195.698 54.7217L196.253 52.3154L195.278 52.0908ZM195.015 54.1495L193.366 54.8526L193.759 55.7724L195.407 55.0693L195.015 54.1495ZM193.562 54.8125H193.484V55.8125H193.562V54.8125ZM194.995 50.9872L196.315 45.2528L195.341 45.0284L194.021 50.7628L194.995 50.9872ZM195.46 44.8022L190.187 50.5365L190.923 51.2135L196.196 45.4791L195.46 44.8022ZM190.555 51.375H194.508V50.375H190.555V51.375ZM199.242 55.3125V55.8125H199.475L199.625 55.6345L199.242 55.3125ZM199.164 55.3125L198.93 55.7545L199.04 55.8125H199.164V55.3125ZM197.953 54.6719L197.57 54.3504L197.172 54.8245L197.719 55.1138L197.953 54.6719ZM201.094 50.9297L201.477 51.2511L201.842 50.8158L201.364 50.5089L201.094 50.9297ZM199.781 49.3828L199.316 49.5656L199.316 49.5672L199.781 49.3828ZM199.805 46.7969L199.609 46.337L199.372 46.4378L199.316 46.6889L199.805 46.7969ZM201.453 46.0938V45.5938H201.351L201.257 45.6338L201.453 46.0938ZM201.531 46.0938L202.018 46.2065L202.16 45.5938H201.531V46.0938ZM201.227 48.8281L200.752 48.9862L200.755 48.995L200.758 49.0037L201.227 48.8281ZM201.992 49.8672L201.708 50.2783L202.082 50.5375L202.375 50.1889L201.992 49.8672ZM205.164 46.0938V45.5938H204.931L204.781 45.772L205.164 46.0938ZM205.242 46.0938L205.477 45.6523L205.367 45.5938H205.242V46.0938ZM206.461 46.7422L206.843 47.0643L207.242 46.5913L206.696 46.3008L206.461 46.7422ZM203.289 50.5078L202.907 50.1857L202.53 50.6326L203.03 50.9354L203.289 50.5078ZM204.68 52.0234L205.144 51.8377L205.143 51.8363L204.68 52.0234ZM204.648 54.6094L204.845 55.0693L205.077 54.9702L205.135 54.7244L204.648 54.6094ZM203 55.3125V55.8125H203.102L203.196 55.7724L203 55.3125ZM202.922 55.3125L202.435 55.2008L202.294 55.8125H202.922V55.3125ZM203.227 52.5781L202.738 52.6829L202.738 52.6843L203.227 52.5781ZM202.406 51.5547L202.644 51.1148L202.286 50.9214L202.024 51.2326L202.406 51.5547ZM199.242 54.8125H199.164V55.8125H199.242V54.8125ZM199.398 54.8705L198.187 54.2299L197.719 55.1138L198.93 55.7545L199.398 54.8705ZM198.336 54.9933L201.477 51.2511L200.711 50.6083L197.57 54.3504L198.336 54.9933ZM201.364 50.5089C200.818 50.1587 200.454 49.7221 200.246 49.1984L199.316 49.5672C199.609 50.304 200.119 50.8986 200.824 51.3505L201.364 50.5089ZM200.247 49.2C200.161 48.9816 200.109 48.6956 200.109 48.3281H199.109C199.109 48.7836 199.172 49.2006 199.316 49.5656L200.247 49.2ZM200.109 48.3281C200.109 47.9432 200.168 47.4707 200.293 46.9049L199.316 46.6889C199.181 47.3001 199.109 47.8484 199.109 48.3281H200.109ZM200.001 47.2568L201.649 46.5537L201.257 45.6338L199.609 46.337L200.001 47.2568ZM201.453 46.5938H201.531V45.5938H201.453V46.5938ZM201.044 45.981C200.799 47.0403 200.664 47.8546 200.664 48.3906H201.664C201.664 47.9788 201.774 47.2618 202.018 46.2065L201.044 45.981ZM200.664 48.3906C200.664 48.5975 200.69 48.7988 200.752 48.9862L201.701 48.67C201.68 48.6074 201.664 48.5171 201.664 48.3906H200.664ZM200.758 49.0037C200.959 49.539 201.27 49.9757 201.708 50.2783L202.277 49.4561C202.037 49.29 201.838 49.0339 201.695 48.6526L200.758 49.0037ZM202.375 50.1889L205.547 46.4155L204.781 45.772L201.609 49.5455L202.375 50.1889ZM205.164 46.5938H205.242V45.5938H205.164V46.5938ZM205.007 46.5352L206.226 47.1836L206.696 46.3008L205.477 45.6523L205.007 46.5352ZM206.079 46.4201L202.907 50.1857L203.671 50.8299L206.843 47.0643L206.079 46.4201ZM203.03 50.9354C203.649 51.3106 204.026 51.7401 204.216 52.2105L205.143 51.8363C204.854 51.1193 204.304 50.5384 203.548 50.0802L203.03 50.9354ZM204.215 52.2091C204.3 52.4211 204.352 52.7008 204.352 53.0625H205.352C205.352 52.6117 205.288 52.1987 205.144 51.8377L204.215 52.2091ZM204.352 53.0625C204.352 53.473 204.291 53.9491 204.162 54.4944L205.135 54.7244C205.277 54.1239 205.352 53.5687 205.352 53.0625H204.352ZM204.452 54.1495L202.804 54.8526L203.196 55.7724L204.845 55.0693L204.452 54.1495ZM203 54.8125H202.922V55.8125H203V54.8125ZM203.409 55.4242C203.64 54.4152 203.766 53.6076 203.766 53.0234H202.766C202.766 53.4914 202.662 54.2098 202.435 55.2008L203.409 55.4242ZM203.766 53.0234C203.766 52.8249 203.751 52.6382 203.715 52.4719L202.738 52.6843C202.754 52.7576 202.766 52.8678 202.766 53.0234H203.766ZM203.715 52.4734C203.586 51.8703 203.204 51.4174 202.644 51.1148L202.169 51.9946C202.515 52.1815 202.679 52.4109 202.738 52.6829L203.715 52.4734ZM202.024 51.2326L198.86 54.9905L199.625 55.6345L202.789 51.8767L202.024 51.2326ZM207.156 54.6484L206.725 54.3949L206.46 54.8461L206.923 55.0906L207.156 54.6484ZM213.109 44.5312L213.54 44.7848L213.984 44.0312H213.109V44.5312ZM207.836 44.5312L207.357 44.3876L207.164 45.0312H207.836V44.5312ZM207.859 44.4531L207.45 44.1664L207.404 44.2323L207.38 44.3095L207.859 44.4531ZM208.734 43.2031V42.7031H208.474L208.325 42.9164L208.734 43.2031ZM214.664 44.1562H214.164V44.1659L214.164 44.1755L214.664 44.1562ZM214.609 44.6094L214.124 44.4881L214.124 44.4906L214.609 44.6094ZM213.68 46.3594L213.252 46.101L213.247 46.1087L213.68 46.3594ZM208.492 55.3125V55.8125H208.78L208.925 55.5632L208.492 55.3125ZM208.414 55.3125L208.181 55.7547L208.29 55.8125H208.414V55.3125ZM207.587 54.902L213.54 44.7848L212.678 44.2777L206.725 54.3949L207.587 54.902ZM213.109 44.0312H207.836V45.0312H213.109V44.0312ZM208.315 44.6749L208.338 44.5968L207.38 44.3095L207.357 44.3876L208.315 44.6749ZM208.269 44.7399L209.144 43.4899L208.325 42.9164L207.45 44.1664L208.269 44.7399ZM208.734 43.7031H213.422V42.7031H208.734V43.7031ZM213.422 43.7031C213.786 43.7031 213.967 43.7754 214.049 43.8381C214.106 43.8815 214.164 43.9563 214.164 44.1562H215.164C215.164 43.7208 215.015 43.319 214.658 43.0447C214.326 42.7897 213.886 42.7031 213.422 42.7031V43.7031ZM214.164 44.1755C214.167 44.2529 214.157 44.3557 214.124 44.4881L215.094 44.7306C215.145 44.5297 215.171 44.3304 215.164 44.137L214.164 44.1755ZM214.124 44.4906C214.112 44.5385 214.05 44.6907 213.892 44.9881C213.744 45.2683 213.531 45.6384 213.252 46.1011L214.108 46.6177C214.391 46.148 214.614 45.7604 214.776 45.4572C214.927 45.1713 215.049 44.9146 215.095 44.7281L214.124 44.4906ZM213.247 46.1087L208.06 55.0618L208.925 55.5632L214.112 46.61L213.247 46.1087ZM208.492 54.8125H208.414V55.8125H208.492V54.8125ZM208.648 54.8703L207.39 54.2063L206.923 55.0906L208.181 55.7547L208.648 54.8703Z" fill="#0078D4" mask="url(#path-4-outside-1_1493_7842)"/>
</svg>
